<?xml version="1.0" encoding="utf-8"?>
<!-- Generator: Adobe Illustrator 28.3.0, SVG Export Plug-In . SVG Version: 6.00 Build 0)  -->
<svg version="1.1" id="Layer_6" xmlns="http://www.w3.org/2000/svg" xmlns:xlink="http://www.w3.org/1999/xlink" x="0px" y="0px"
	 viewBox="0 0 278.5 39.9" style="enable-background:new 0 0 278.5 39.9;" xml:space="preserve">
<style type="text/css">
	.st0{fill:#FFFFFF;}
</style>
<g>
	<path class="st0" d="M17.5,33.6c0,1.9,0,2.2,1.7,2.7c0.7,0.2,1.1,0.7,1.1,1.4c0,1.5-1.7,1.6-1.9,1.6H4.2c-0.2,0-1.9-0.1-1.9-1.6
		c0-0.7,0.5-1.2,1.1-1.4c1.8-0.5,1.7-0.9,1.7-2.7V7.2c0-1.9,0.1-2.2-1.7-2.7C2.8,4.3,2.3,3.8,2.3,3.1c0-1.5,1.7-1.6,1.9-1.6h14.2
		c0.2,0,1.9,0.1,1.9,1.6c0,0.7-0.5,1.1-1.1,1.4c-1.8,0.6-1.7,0.9-1.7,2.7L17.5,33.6L17.5,33.6z"/>
	<path class="st0" d="M28.8,14.3h0.1l2.8,8.3v8.7c0.8,6.3,4,4.3,4,6.5c0,1.6-2.1,1.5-2.6,1.5h-5.7c-0.5,0-2.6,0.1-2.6-1.5
		c0-2.2,3.2-0.2,4-6.5C28.8,31.3,28.8,14.3,28.8,14.3z M49.6,1.6h13.3c0.2,0,1.9,0.1,1.9,1.6c0,0.7-0.4,1.2-1.1,1.4
		C61.9,5.1,62,5.4,62,7.2v26.4c0,1.9,0,2.2,1.7,2.7c0.7,0.2,1.1,0.7,1.1,1.4c0,1.5-1.7,1.6-1.9,1.6H48.7c-0.2,0-1.9-0.1-1.9-1.6
		c0-0.7,0.5-1.2,1.1-1.4c1.8-0.5,1.7-0.9,1.7-2.7V1.6z M26.7,1.6h12.8L44.9,17H45l2.3-8.4h0.1v9.1L41,39.2h-1.5L29,8.1
		c-0.2-0.8-0.5-1.5-0.9-2.2c-0.5-0.8-0.6-1.4-1.5-1.4c-0.6-0.1-2-0.2-2-1.4C24.6,1.6,26.1,1.6,26.7,1.6z"/>
	<path class="st0" d="M73.1,14.3L73.1,14.3l2.9,8.3v8.7c0.8,6.3,4,4.3,4,6.5c0,1.6-2.1,1.5-2.6,1.5h-5.7c-0.6,0-2.6,0.1-2.6-1.5
		c0-2.2,3.2-0.2,4-6.5L73.1,14.3L73.1,14.3z M93.9,1.6h13.3c0.2,0,1.9,0.1,1.9,1.6c0,0.7-0.4,1.2-1.1,1.4c-1.8,0.6-1.7,0.9-1.7,2.7
		v26.4c0,1.9-0.1,2.2,1.7,2.7c0.7,0.2,1.1,0.7,1.1,1.4c0,1.5-1.7,1.6-1.9,1.6H92.9c-0.2,0-1.9-0.1-1.9-1.6c0-0.7,0.4-1.2,1.1-1.4
		c1.8-0.5,1.7-0.9,1.7-2.7L93.9,1.6L93.9,1.6z M71,1.6h12.8L89.1,17h0.1l2.3-8.4h0.1v9.1l-6.4,21.4h-1.5l-10.5-31
		c-0.2-0.8-0.5-1.5-0.9-2.2c-0.5-0.8-0.7-1.4-1.5-1.4c-0.6-0.1-2-0.2-2-1.4C68.9,1.6,70.4,1.6,71,1.6z"/>
	<path class="st0" d="M123.5,14.3l-4.7,17.2c-0.8,3.1-0.1,3.9,1.6,4.7c0.8,0.3,1.5,0.7,1.5,1.7c0,1.4-1.6,1.4-2.6,1.4h-5.8
		c-1,0-2.8,0-2.8-1.5c0-1.2,0.9-1.2,2-1.7s2.4-1.7,3.4-5.3l6-22.1h0.2L123.5,14.3z M128.8,29.5h-7.3l0.7-2.9h6.1l-5.1-22.2l0.7-2.7
		H135l7.6,31.8c0.3,1.4,0.4,2.4,1.8,3c0.7,0.3,1.3,0.7,1.3,1.6c0,1.4-1.8,1.3-2.8,1.3h-12.5c-1,0-2.5-0.1-2.5-1.4
		c0-0.8,0.3-1.1,0.9-1.4c1.3-0.8,1.5-1.1,1.1-3.1L128.8,29.5z"/>
	<path class="st0" d="M160.2,32.4c0,1.8,0.4,3.9,2.4,4.6v3c-8.8-0.2-15.5-8.8-15.5-19.6S153.8,1,162.6,0.8v2.9
		c-2,0.7-2.4,2.8-2.4,4.6V32.4z M164.9,0.8c5.3,0.4,8,1.9,8.6,1.9c1.5,0,1.4-1.9,3-1.9c1.5,0,1.4,1.4,1.4,1.6v11.2
		c0,0.2,0,1.8-1.6,1.8c-1.3,0-1.7-0.9-1.9-2c-1.6-6.4-5.4-9.5-9.5-9.7V0.8L164.9,0.8z M164.9,37.1c2.2-0.7,2.3-2.4,2.3-3.2v-9.1
		c0-1.1-0.1-1.4-2.1-1.7c-0.8-0.2-1.3-0.7-1.3-1.5c0-1.4,1.8-1.4,2-1.4h12c0.3,0,1.8-0.1,1.8,1.5c0,0.9-0.4,1.2-0.9,1.5
		c-1.1,0.6-0.9,1.3-0.9,1.5v10c-3.5,3.2-8.2,5.2-12.9,5.3L164.9,37.1L164.9,37.1z"/>
	<path class="st0" d="M198.4,33.6c0,1.9-0.1,2.2,1.7,2.7c0.7,0.2,1.1,0.7,1.1,1.4c0,1.5-1.7,1.6-1.9,1.6h-14.2
		c-0.2,0-1.9-0.1-1.9-1.6c0-0.7,0.4-1.2,1.1-1.4c1.8-0.5,1.7-0.9,1.7-2.7V7.2c0-1.9,0.1-2.2-1.7-2.7c-0.6-0.2-1.1-0.7-1.1-1.4
		c0-1.5,1.7-1.6,1.9-1.6h14.2c0.2,0,1.9,0.1,1.9,1.6c0,0.7-0.4,1.2-1.1,1.4c-1.8,0.6-1.7,0.9-1.7,2.7V33.6z"/>
	<path class="st0" d="M209.3,11h0.1l2.8,5v15.2c0.8,6.3,4,4.3,4,6.5c0,1.6-2.1,1.5-2.6,1.5h-5.7c-0.6,0-2.6,0.1-2.6-1.5
		c0-2.2,3.2-0.2,4-6.5V11L209.3,11z M232.6,10.7c0-7.2-4.1-5.3-4.1-7.6c0-1.4,1.7-1.5,2.2-1.5h6.9c0.5,0,2.2,0.1,2.2,1.5
		c0,2.3-4.1,0.4-4.1,7.6v12.2h-0.1l-2.8-5.1L232.6,10.7L232.6,10.7z M235.5,27v12.2H228L209.6,7.5c-0.8-1.4-1.1-2.2-2.7-2.7
		c-0.9-0.3-1.5-0.5-1.5-1.6c0-1.5,1.5-1.5,2.6-1.6h12.9L235.5,27z"/>
	<path class="st0" d="M253.8,14.3l-4.7,17.2c-0.8,3.1-0.1,3.9,1.6,4.7c0.8,0.3,1.5,0.7,1.5,1.7c0,1.4-1.6,1.4-2.6,1.4h-5.8
		c-1,0-2.8,0-2.8-1.5c0-1.2,0.9-1.2,2-1.7s2.4-1.7,3.4-5.3l6-22.1h0.1L253.8,14.3z M259.2,29.5h-7.4l0.7-2.9h6.1l-5.1-22.2l0.7-2.7
		h11.1l7.5,31.8c0.3,1.4,0.4,2.4,1.8,3c0.7,0.3,1.3,0.7,1.3,1.6c0,1.4-1.8,1.3-2.8,1.3h-12.5c-1,0-2.5-0.1-2.5-1.4
		c0-0.8,0.3-1.1,1-1.4c1.3-0.8,1.5-1.1,1.1-3.1L259.2,29.5z"/>
</g>
</svg>
