<?xml version="1.0" encoding="utf-8"?>
<!-- Generator: Adobe Illustrator 25.0.1, SVG Export Plug-In . SVG Version: 6.00 Build 0)  -->
<svg version="1.1" id="Layer_6" xmlns="http://www.w3.org/2000/svg" xmlns:xlink="http://www.w3.org/1999/xlink" x="0px" y="0px"
	 viewBox="0 0 278.54 39.94" style="enable-background:new 0 0 278.54 39.94;" xml:space="preserve">
<style type="text/css">
	.st0{fill:#ED1C24;}
</style>
<g>
	<path class="st0" d="M17.46,33.58c0,1.86-0.05,2.17,1.71,2.71c0.66,0.2,1.11,0.66,1.11,1.36c0,1.46-1.66,1.56-1.86,1.56H4.17
		c-0.2,0-1.86-0.1-1.86-1.56c0-0.7,0.46-1.15,1.11-1.36c1.76-0.55,1.71-0.86,1.71-2.71V7.22c0-1.86,0.05-2.17-1.71-2.72
		C2.77,4.3,2.31,3.84,2.31,3.14c0-1.46,1.66-1.56,1.86-1.56h14.24c0.2,0,1.86,0.1,1.86,1.56c0,0.7-0.45,1.15-1.11,1.36
		c-1.76,0.55-1.71,0.86-1.71,2.72v26.36H17.46z"/>
	<path class="st0" d="M28.84,14.31h0.1l2.82,8.3v8.66c0.8,6.29,4.02,4.33,4.02,6.49c0,1.56-2.07,1.46-2.62,1.46h-5.73
		c-0.55,0-2.62,0.1-2.62-1.46c0-2.16,3.22-0.2,4.03-6.49C28.84,31.27,28.84,14.31,28.84,14.31z M49.62,1.58H62.9
		c0.2,0,1.86,0.1,1.86,1.56c0,0.7-0.45,1.15-1.1,1.36c-1.76,0.55-1.71,0.86-1.71,2.72v26.37c0,1.86-0.05,2.17,1.71,2.71
		c0.65,0.2,1.1,0.66,1.1,1.36c0,1.46-1.66,1.56-1.86,1.56H48.67c-0.2,0-1.86-0.1-1.86-1.56c0-0.7,0.45-1.15,1.1-1.36
		c1.76-0.55,1.71-0.86,1.71-2.71C49.62,33.59,49.62,1.58,49.62,1.58z M26.72,1.58H39.5l5.39,15.45h0.1l2.27-8.35h0.1v9.15
		l-6.39,21.38H39.5L28.99,8.07c-0.25-0.76-0.51-1.51-0.91-2.17c-0.45-0.75-0.65-1.36-1.51-1.41c-0.6-0.05-1.97-0.15-1.97-1.36
		C24.6,1.58,26.12,1.58,26.72,1.58z"/>
	<path class="st0" d="M73.07,14.31h0.1l2.82,8.3v8.66c0.8,6.29,4.02,4.33,4.02,6.49c0,1.56-2.06,1.46-2.61,1.46h-5.73
		c-0.56,0-2.62,0.1-2.62-1.46c0-2.16,3.22-0.2,4.02-6.49L73.07,14.31L73.07,14.31z M93.86,1.58h13.29c0.2,0,1.86,0.1,1.86,1.56
		c0,0.7-0.45,1.15-1.11,1.36c-1.76,0.55-1.71,0.86-1.71,2.72v26.37c0,1.86-0.05,2.17,1.71,2.71c0.66,0.2,1.11,0.66,1.11,1.36
		c0,1.46-1.66,1.56-1.86,1.56H92.9c-0.2,0-1.86-0.1-1.86-1.56c0-0.7,0.45-1.15,1.1-1.36c1.76-0.55,1.71-0.86,1.71-2.71V1.58H93.86z
		 M70.96,1.58h12.78l5.39,15.45h0.1l2.26-8.35h0.1v9.15L85.2,39.21h-1.47L73.23,8.07c-0.25-0.76-0.51-1.51-0.9-2.17
		c-0.46-0.75-0.65-1.36-1.51-1.41c-0.61-0.05-1.96-0.15-1.96-1.36C68.86,1.58,70.36,1.58,70.96,1.58z"/>
	<path class="st0" d="M123.46,14.31l-4.73,17.21c-0.81,3.07-0.11,3.93,1.61,4.68c0.8,0.35,1.51,0.65,1.51,1.66
		c0,1.41-1.61,1.36-2.61,1.36h-5.79c-1.01,0-2.82-0.05-2.82-1.51c0-1.2,0.86-1.15,1.96-1.71c1.06-0.55,2.42-1.71,3.37-5.28L122,8.63
		h0.15L123.46,14.31z M128.84,29.45h-7.35l0.71-2.92h6.15l-5.09-22.24l0.66-2.72h11.12l7.55,31.8c0.31,1.41,0.35,2.37,1.76,2.97
		c0.7,0.3,1.26,0.66,1.26,1.56c0,1.36-1.82,1.31-2.77,1.31H130.3c-1,0-2.47-0.1-2.47-1.41c0-0.8,0.3-1.06,0.95-1.41
		c1.31-0.75,1.51-1.11,1.06-3.07L128.84,29.45z"/>
	<path class="st0" d="M160.19,32.42c0,1.81,0.4,3.93,2.42,4.63v2.92c-8.76-0.25-15.5-8.81-15.5-19.57c0-10.82,6.74-19.37,15.5-19.58
		v2.92c-2.01,0.7-2.42,2.77-2.42,4.58V32.42z M164.88,0.83c5.28,0.45,7.99,1.86,8.55,1.86c1.51,0,1.36-1.86,2.97-1.86
		c1.51,0,1.42,1.36,1.42,1.61v11.22c0,0.25,0,1.81-1.57,1.81c-1.3,0-1.66-0.95-1.91-2.01c-1.56-6.45-5.39-9.51-9.46-9.71
		L164.88,0.83L164.88,0.83z M164.88,37.06c2.21-0.66,2.31-2.37,2.31-3.22v-9.06c0-1.11-0.05-1.36-2.06-1.71
		c-0.81-0.2-1.31-0.66-1.31-1.51c0-1.36,1.76-1.41,2.02-1.41h12.02c0.26,0,1.76-0.15,1.76,1.51c0,0.86-0.45,1.21-0.91,1.51
		c-1.05,0.65-0.9,1.26-0.9,1.51v9.96c-3.53,3.17-8.16,5.24-12.94,5.34L164.88,37.06L164.88,37.06z"/>
	<path class="st0" d="M198.4,33.58c0,1.86-0.05,2.17,1.71,2.71c0.66,0.2,1.11,0.66,1.11,1.36c0,1.46-1.66,1.56-1.86,1.56h-14.25
		c-0.2,0-1.86-0.1-1.86-1.56c0-0.7,0.45-1.15,1.1-1.36c1.76-0.55,1.71-0.86,1.71-2.71V7.22c0-1.86,0.05-2.17-1.71-2.72
		c-0.65-0.2-1.1-0.66-1.1-1.36c0-1.46,1.66-1.56,1.86-1.56h14.25c0.2,0,1.86,0.1,1.86,1.56c0,0.7-0.45,1.15-1.11,1.36
		c-1.76,0.55-1.71,0.86-1.71,2.72V33.58z"/>
	<path class="st0" d="M209.27,11.04h0.1l2.81,5.04v15.19c0.81,6.29,4.03,4.33,4.03,6.49c0,1.56-2.07,1.46-2.62,1.46h-5.74
		c-0.55,0-2.62,0.1-2.62-1.46c0-2.16,3.22-0.2,4.03-6.49L209.27,11.04L209.27,11.04z M232.57,10.69c0-7.19-4.13-5.28-4.13-7.59
		c0-1.41,1.66-1.51,2.16-1.51h6.85c0.51,0,2.16,0.1,2.16,1.51c0,2.32-4.12,0.4-4.12,7.59v12.23h-0.1l-2.81-5.08v-7.15H232.57z
		 M235.49,27.04v12.18h-7.5L209.57,7.47c-0.8-1.41-1.06-2.16-2.72-2.71c-0.86-0.3-1.51-0.5-1.51-1.61c0-1.51,1.51-1.51,2.57-1.56
		h12.94L235.49,27.04z"/>
	<path class="st0" d="M253.81,14.31l-4.73,17.21c-0.81,3.07-0.1,3.93,1.61,4.68c0.81,0.35,1.51,0.65,1.51,1.66
		c0,1.41-1.61,1.36-2.61,1.36h-5.79c-1.01,0-2.81-0.05-2.81-1.51c0-1.2,0.85-1.15,1.96-1.71c1.06-0.55,2.42-1.71,3.38-5.28
		l6.04-22.09h0.15L253.81,14.31z M259.19,29.45h-7.35l0.7-2.92h6.14L253.6,4.29l0.66-2.72h11.12l7.55,31.8
		c0.3,1.41,0.35,2.37,1.76,2.97c0.7,0.3,1.26,0.66,1.26,1.56c0,1.36-1.81,1.31-2.77,1.31h-12.53c-1,0-2.46-0.1-2.46-1.41
		c0-0.8,0.3-1.06,0.95-1.41c1.31-0.75,1.51-1.11,1.06-3.07L259.19,29.45z"/>
</g>
</svg>
